<?xml version="1.0" standalone="no"?>
<!DOCTYPE svg PUBLIC "-//W3C//DTD SVG 20010904//EN"
 "http://www.w3.org/TR/2001/REC-SVG-20010904/DTD/svg10.dtd">
<svg version="1.0" xmlns="http://www.w3.org/2000/svg"
 width="820.000000pt" height="820.000000pt" viewBox="0 0 820.000000 820.000000"
 preserveAspectRatio="xMidYMid meet">

<g transform="translate(0.000000,820.000000) scale(0.100000,-0.100000)"
fill="#000000" stroke="none">
<path d="M3730 6975 c0 -66 17 -111 70 -181 75 -100 213 -160 390 -171 120 -7
174 6 195 47 45 86 -7 191 -125 251 -38 20 -65 24 -195 30 -151 6 -245 27
-299 65 -32 22 -36 18 -36 -41z"/>
<path d="M4010 6375 c-30 -8 -129 -43 -220 -78 -184 -72 -319 -117 -354 -117
-31 0 -87 19 -108 37 -15 13 -18 12 -34 -12 -28 -43 -23 -86 17 -140 44 -62
116 -103 196 -111 74 -8 140 12 338 100 77 35 142 62 144 60 5 -5 -56 -110
-122 -209 -118 -175 -246 -338 -412 -518 -62 -68 -91 -92 -134 -109 -48 -20
-57 -29 -78 -73 -12 -27 -23 -64 -23 -81 0 -39 23 -106 50 -144 20 -28 21 -29
64 -16 84 26 150 84 336 300 47 54 112 120 145 147 33 27 66 54 73 60 30 24
34 -6 25 -181 -9 -190 -2 -252 35 -312 35 -57 98 -108 181 -146 42 -19 78 -36
79 -37 2 -2 -45 -59 -105 -127 -276 -312 -549 -653 -760 -949 -190 -265 -222
-304 -275 -338 -25 -16 -57 -44 -72 -63 -22 -30 -26 -45 -26 -101 0 -123 54
-217 124 -217 41 0 47 5 87 73 33 57 49 70 49 43 0 -22 -107 -152 -179 -218
-81 -75 -199 -164 -286 -215 -127 -75 -136 -90 -137 -243 0 -78 4 -114 15
-137 29 -55 58 -56 163 -4 l79 39 85 -12 85 -11 -55 -37 c-70 -47 -177 -144
-169 -152 4 -4 49 7 101 24 52 16 98 30 102 30 4 0 6 -9 4 -21 -3 -18 -24 -26
-163 -61 -88 -22 -163 -43 -167 -47 -13 -12 21 -71 54 -91 43 -26 84 -38 191
-51 l87 -12 0 -93 0 -94 -59 -59 -58 -60 -18 38 c-22 50 -102 130 -109 110
-14 -40 -56 -216 -67 -281 -12 -75 -12 -76 16 -124 36 -62 178 -209 193 -200
6 3 26 29 44 57 l33 51 7 -42 c4 -24 15 -51 24 -61 20 -22 20 -21 -26 -39 -19
-7 -60 -28 -90 -46 -66 -38 -140 -61 -226 -70 -73 -8 -78 -17 -45 -89 35 -78
118 -128 260 -156 59 -11 64 -11 89 10 141 112 355 231 415 231 l37 0 -36 -65
c-20 -36 -34 -69 -31 -72 4 -3 21 0 39 7 164 66 293 200 368 383 l24 58 11
-44 c14 -56 50 -105 82 -113 16 -4 56 3 107 19 44 15 122 36 171 48 131 32
160 55 218 176 34 70 50 118 55 165 12 98 -10 139 -91 173 -55 23 -114 18
-272 -21 -113 -28 -154 -35 -190 -29 l-46 6 7 127 c3 70 7 128 8 129 1 2 30
-2 65 -8 l62 -11 -24 -27 c-24 -25 -58 -85 -78 -137 -9 -26 -9 -26 58 11 283
155 451 245 459 245 5 0 15 -32 22 -71 22 -127 92 -392 127 -479 l34 -85 -26
-40 c-88 -135 -225 -298 -373 -444 l-95 -93 50 7 c107 15 281 66 362 106 56
28 107 64 155 108 l71 67 58 -85 c67 -98 184 -234 233 -269 47 -33 148 -49
200 -31 84 29 98 111 56 329 -34 182 -106 368 -188 493 l-27 41 -6 -195 c-4
-107 -12 -212 -19 -234 l-12 -40 -39 45 c-22 25 -51 68 -66 97 l-27 51 52 109
c55 116 93 237 116 372 13 79 13 89 -5 147 -24 77 -69 138 -133 182 -45 30
-152 69 -162 59 -2 -2 6 -26 17 -53 60 -135 63 -220 13 -377 -19 -61 -38 -119
-41 -127 -9 -25 -30 49 -52 182 -22 137 -39 321 -43 473 l-3 100 55 -2 c30 -2
87 -12 125 -24 57 -17 84 -20 145 -15 152 14 196 39 187 108 -7 49 -43 90
-112 123 -43 21 -72 26 -215 35 -91 5 -174 10 -186 10 -18 0 -22 8 -27 57 -3
32 -4 59 -2 61 2 2 36 8 76 12 62 7 77 5 110 -12 95 -49 230 -46 265 7 22 33
29 96 15 137 -12 37 -89 124 -155 174 l-38 30 88 70 c108 85 235 228 276 312
17 34 28 65 25 68 -6 6 -149 -99 -286 -209 -104 -84 -219 -131 -321 -131 -41
-1 -77 -4 -80 -8 -8 -10 -135 18 -178 39 -96 48 -149 192 -172 474 -21 253
-60 351 -159 402 -30 15 -70 27 -88 27 -41 0 -108 -31 -159 -73 -144 -120 -34
3 353 394 l343 346 80 12 c177 27 226 58 217 138 -6 53 -38 98 -90 125 -37 19
-62 22 -207 25 -173 3 -298 16 -330 33 -35 19 -40 72 -30 304 9 190 8 223 -5
243 -20 30 -59 49 -118 58 -26 4 -47 9 -47 11 0 2 32 43 70 91 104 129 242
332 257 376 12 36 11 42 -13 90 -35 71 -48 83 -111 107 -62 23 -141 25 -223 5z
m-16 -2660 c4 -121 12 -247 17 -280 24 -140 107 -286 218 -385 64 -58 68 -63
78 -123 52 -289 64 -359 61 -361 -2 -2 -64 -12 -138 -24 -74 -12 -247 -49
-385 -82 -137 -33 -261 -63 -273 -66 -23 -5 -23 -4 -8 18 9 12 16 37 16 54 0
39 -49 86 -124 119 l-51 23 50 6 c28 4 69 11 92 16 23 6 62 7 87 4 67 -10 225
15 248 38 23 23 23 71 1 110 -38 64 -258 165 -418 192 l-40 7 3 52 c3 46 -1
59 -30 102 -29 43 -39 51 -77 57 -24 4 -46 9 -48 12 -8 7 183 200 309 312 67
60 149 134 181 164 66 61 207 244 207 269 1 14 2 14 9 1 5 -8 12 -114 15 -235z
m720 -808 c20 -54 20 -54 -7 -61 -13 -3 -35 -16 -49 -29 l-26 -24 -7 56 c-3
31 -8 64 -11 73 -4 12 3 18 23 21 58 9 60 8 77 -36z m-1331 -233 l-76 -83 -71
-11 c-39 -6 -84 -13 -101 -16 l-30 -5 35 28 c63 51 158 144 185 183 l27 39 53
-26 53 -26 -75 -83z m166 -331 c7 -21 27 -60 44 -88 27 -45 54 -131 38 -122
-111 60 -175 72 -296 55 -50 -7 -50 -7 -67 28 -17 33 -17 35 0 41 92 32 175
68 212 92 25 17 47 30 50 30 4 1 12 -16 19 -36z m846 -112 l7 -84 -23 17 c-38
26 -124 20 -272 -19 -192 -51 -231 -48 -264 21 l-22 44 42 0 c47 0 107 14 242
54 109 33 268 66 276 57 4 -3 10 -44 14 -90z m-759 -323 c-4 -62 -9 -158 -12
-212 l-6 -99 -35 74 c-57 123 -114 166 -234 176 l-69 6 0 38 c0 44 -11 39 188
85 65 14 124 30 132 35 40 22 42 14 36 -103z m-321 -164 c19 -46 21 -62 13
-83 -6 -14 -19 -53 -29 -86 l-18 -60 0 149 c-1 82 2 147 5 144 3 -4 16 -32 29
-64z m281 -363 c-9 -56 -26 -139 -38 -183 l-22 -80 -19 26 c-10 15 -32 33 -47
41 -40 21 -132 30 -169 17 l-31 -11 0 38 c0 37 2 39 46 51 101 29 244 157 277
249 l12 35 3 -40 c2 -22 -4 -87 -12 -143z m553 163 c7 -7 -49 -111 -73 -133
l-23 -22 -27 67 c-15 37 -25 73 -22 80 3 7 17 15 33 17 27 4 104 -2 112 -9z"/>
<path d="M4120 650 c0 -5 5 -10 10 -10 6 0 10 5 10 10 0 6 -4 10 -10 10 -5 0
-10 -4 -10 -10z"/>
<path d="M4723 585 c0 -44 2 -61 4 -37 2 23 2 59 0 80 -2 20 -4 1 -4 -43z"/>
<path d="M4773 585 c0 -44 2 -61 4 -37 2 23 2 59 0 80 -2 20 -4 1 -4 -43z"/>
<path d="M5383 585 c0 -44 2 -61 4 -37 2 23 2 59 0 80 -2 20 -4 1 -4 -43z"/>
<path d="M5501 637 c-1 -24 -4 -27 -22 -22 -25 8 -59 -19 -59 -47 0 -39 19
-59 53 -56 30 3 32 6 38 53 3 28 2 61 -2 75 l-7 25 -1 -28z m-3 -66 c5 -31
-25 -56 -45 -40 -14 12 -18 51 -6 63 16 15 48 1 51 -23z"/>
<path d="M4372 638 c-20 -25 -24 -84 -8 -123 9 -21 19 -36 22 -32 3 3 1 14 -5
25 -14 26 -14 82 -1 116 10 28 8 33 -8 14z"/>
<path d="M4422 630 c0 -14 2 -19 5 -12 2 6 2 18 0 25 -3 6 -5 1 -5 -13z"/>
<path d="M4472 580 c1 -51 3 -64 7 -40 5 32 9 35 44 38 37 3 37 3 37 -34 0
-21 3 -34 7 -30 8 8 6 126 -2 134 -3 3 -5 -9 -5 -26 0 -30 -2 -32 -35 -32 -30
0 -36 4 -44 33 -8 27 -9 20 -9 -43z"/>
<path d="M4983 638 c2 -7 12 -39 21 -70 9 -32 21 -58 26 -58 5 0 16 26 25 58
l17 57 17 -53 c9 -30 20 -54 25 -55 6 -1 18 25 28 58 20 69 21 75 10 75 -5 0
-15 -26 -22 -57 l-13 -58 -17 55 c-10 30 -22 56 -28 58 -5 1 -16 -20 -23 -48
-7 -27 -16 -50 -19 -50 -3 0 -12 23 -19 50 -7 28 -17 50 -23 50 -6 0 -8 -6 -5
-12z"/>
<path d="M5552 630 c0 -14 2 -19 5 -12 2 6 2 18 0 25 -3 6 -5 1 -5 -13z"/>
<path d="M5596 635 c16 -43 16 -105 0 -130 -10 -14 -12 -25 -6 -25 6 0 18 16
26 37 17 41 12 89 -12 119 -15 19 -15 19 -8 -1z"/>
<path d="M4290 625 c0 -8 -6 -15 -12 -15 -10 0 -10 -2 -1 -8 6 -4 13 -25 15
-47 2 -31 8 -41 23 -43 16 -3 18 -1 8 9 -7 7 -13 27 -13 45 0 18 6 35 13 37
10 4 10 6 0 6 -7 1 -13 8 -13 16 0 8 -4 15 -10 15 -5 0 -10 -7 -10 -15z"/>
<path d="M3960 611 c-8 -6 -18 -7 -22 -5 -4 3 -7 -28 -7 -68 1 -40 4 -61 6
-45 4 23 8 26 29 21 33 -8 54 11 54 50 0 47 -26 68 -60 47z m43 -25 c8 -20 -3
-54 -19 -60 -15 -6 -44 19 -44 38 0 31 53 50 63 22z"/>
<path d="M4068 613 c-14 -4 -18 -15 -17 -56 1 -56 4 -54 14 6 4 23 11 37 20
37 8 0 15 5 15 10 0 10 -3 11 -32 3z"/>
<path d="M4193 613 c-20 -4 -23 -11 -23 -54 0 -60 18 -65 22 -6 2 34 7 42 23
42 16 0 21 -9 26 -45 l6 -45 1 51 c2 39 -2 53 -14 58 -9 3 -16 5 -17 5 -1 -1
-12 -4 -24 -6z"/>
<path d="M4620 600 c-24 -24 -26 -53 -4 -74 18 -18 64 -22 64 -5 0 6 -6 9 -12
6 -16 -5 -48 10 -48 23 0 6 16 10 35 10 27 0 35 4 35 18 0 21 -18 42 -37 42
-7 0 -22 -9 -33 -20z m50 -15 c0 -9 -9 -15 -25 -15 -24 0 -32 10 -18 23 12 13
43 7 43 -8z"/>
<path d="M4827 602 c-21 -23 -22 -56 -1 -76 32 -32 84 -8 84 39 0 49 -52 71
-83 37z m61 -33 c4 -34 -22 -57 -43 -39 -16 13 -20 51 -8 64 16 16 48 1 51
-25z"/>
<path d="M5196 605 c-19 -19 -21 -66 -4 -83 21 -21 56 -14 75 14 15 24 15 29
2 53 -17 31 -50 38 -73 16z m62 -37 c4 -35 -29 -56 -52 -32 -19 18 -19 20 -5
45 16 30 53 21 57 -13z"/>
<path d="M5335 610 c-4 -6 -11 -8 -16 -5 -5 4 -8 -16 -8 -47 1 -29 3 -42 6
-28 9 56 14 70 28 70 8 0 15 5 15 10 0 13 -17 13 -25 0z"/>
<path d="M4120 560 c0 -27 5 -50 10 -50 6 0 10 23 10 50 0 28 -4 50 -10 50 -5
0 -10 -22 -10 -50z"/>
<path d="M5820 479 c0 -7 -31 -10 -95 -7 -68 2 -98 -1 -103 -9 -6 -9 -219 -13
-922 -15 -503 -1 -951 -5 -995 -8 -157 -10 414 -20 1167 -20 550 0 747 -3 750
-11 3 -8 34 -11 96 -10 51 1 96 0 102 -4 15 -9 230 -11 230 -2 0 5 26 7 58 6
31 -2 63 0 70 4 20 13 14 54 -10 71 -28 20 -38 20 -38 1 0 -11 -11 -15 -35
-15 -22 0 -38 6 -41 15 -7 17 -44 21 -44 5 0 -6 -30 -10 -69 -10 -39 0 -73 5
-76 10 -8 14 -45 13 -45 -1z"/>
</g>
</svg>
